<svg width="117" height="24" viewBox="0 0 117 24" fill="none" xmlns="http://www.w3.org/2000/svg">
<rect width="57" height="24" fill="white"/>
<path d="M5.79688 18V6.6875H10.4688C13 6.6875 14.3125 7.84375 14.3125 9.5625C14.3125 10.8594 13.4375 11.75 12.2031 12V12.1094C13.5625 12.1719 14.75 13.2031 14.75 14.8438C14.75 16.6719 13.3281 18 10.8281 18H5.79688ZM10.2031 15.8438C11.4219 15.8438 11.9688 15.3594 11.9688 14.5469C11.9688 13.6562 11.3125 13.0938 10.25 13.0938H8.45312V15.8438H10.2031ZM10.0312 11.3594C10.9375 11.3594 11.5938 10.875 11.5938 10.0625C11.5938 9.29688 11.0156 8.8125 10.0625 8.8125H8.45312V11.3594H10.0312ZM16.0625 18V6.6875H20.6875C23.2344 6.6875 24.7969 8.125 24.7969 10.4375C24.7969 11.9922 24.0859 13.1094 22.8438 13.6719L25.2031 18H22.2812L20.2031 14.1094H18.7188V18H16.0625ZM18.7188 11.9844H20.125C21.375 11.9844 22.0469 11.5 22.0469 10.4375C22.0469 9.375 21.375 8.84375 20.125 8.84375H18.7188V11.9844ZM28.6406 18H25.7656L29.6094 6.6875H33.1406L36.9688 18H34.1094L33.3438 15.5781H29.4062L28.6406 18ZM30.0469 13.5469H32.7031L31.4219 9.48438H31.3281L30.0469 13.5469ZM40.8281 6.6875V18H38.1719V6.6875H40.8281ZM52.1406 6.6875V18H49.875L45.2812 11.3594H45.2031V18H42.5469V6.6875H44.8438L49.3906 13.3281H49.4844V6.6875H52.1406Z" fill="#8646F2"/>
<path d="M68.25 10.0469C68.1875 9.21875 67.5781 8.73438 66.4844 8.73438C65.4062 8.73438 64.8594 9.20312 64.8438 9.84375C64.8281 10.5469 65.5156 10.8906 66.5312 11.1094L67.5156 11.3438C69.6875 11.8281 70.9531 12.9062 70.9688 14.7188C70.9531 16.8594 69.2969 18.1562 66.4844 18.1562C63.6719 18.1562 61.8438 16.875 61.7969 14.2812H64.3594C64.4219 15.375 65.2344 15.9375 66.4531 15.9375C67.5781 15.9375 68.25 15.4375 68.2656 14.7188C68.25 14.0625 67.6719 13.7188 66.4219 13.4375L65.2344 13.1562C63.2812 12.7031 62.0938 11.7344 62.0938 10.0312C62.0781 7.9375 63.9375 6.53125 66.5 6.53125C69.1094 6.53125 70.7812 7.95312 70.8125 10.0469H68.25ZM81.9375 6.6875V18H79.6719L75.0781 11.3594H75V18H72.3438V6.6875H74.6406L79.1875 13.3281H79.2812V6.6875H81.9375ZM86 18H83.125L86.9688 6.6875H90.5L94.3281 18H91.4688L90.7031 15.5781H86.7656L86 18ZM87.4062 13.5469H90.0625L88.7812 9.48438H88.6875L87.4062 13.5469ZM102.516 10.7656C102.359 9.60938 101.531 8.875 100.266 8.875C98.5938 8.875 97.5781 10.1406 97.5781 12.3438C97.5781 14.625 98.625 15.8125 100.25 15.8125C101.469 15.8125 102.312 15.1562 102.516 14.0469L105.203 14.0625C104.984 16.0781 103.266 18.1562 100.203 18.1562C97.1406 18.1562 94.8594 16.0625 94.8594 12.3438C94.8594 8.60938 97.1875 6.53125 100.203 6.53125C102.922 6.53125 104.922 8.0625 105.203 10.7656H102.516ZM106.75 18V6.6875H109.406V11.5156H109.562L113.359 6.6875H116.516L112.469 11.7344L116.578 18H113.391L110.531 13.5156L109.406 14.9062V18H106.75Z" fill="white"/>
</svg>
