<svg width="117" height="24" viewBox="0 0 117 24" fill="none" xmlns="http://www.w3.org/2000/svg">
<rect width="57" height="24" fill="#8646F2"/>
<path d="M5.79688 6.6875H10.4688C11.2969 6.6875 11.9974 6.80729 12.5703 7.04688C13.1484 7.28125 13.5833 7.61458 13.875 8.04688C14.1667 8.47917 14.3125 8.98438 14.3125 9.5625C14.3125 9.98438 14.224 10.3646 14.0469 10.7031C13.8698 11.0417 13.6224 11.3229 13.3047 11.5469C12.987 11.7656 12.6198 11.9167 12.2031 12V12.1094C12.6615 12.1302 13.0833 12.2552 13.4688 12.4844C13.8594 12.7135 14.1693 13.0312 14.3984 13.4375C14.6328 13.8438 14.75 14.3125 14.75 14.8438C14.75 15.4583 14.5938 16.0052 14.2812 16.4844C13.974 16.9583 13.526 17.3307 12.9375 17.6016C12.349 17.8672 11.6458 18 10.8281 18H5.79688V6.6875ZM10.2031 15.8438C10.7969 15.8438 11.2396 15.7318 11.5312 15.5078C11.8229 15.2839 11.9688 14.9635 11.9688 14.5469C11.9688 14.099 11.8151 13.7448 11.5078 13.4844C11.2005 13.224 10.7812 13.0938 10.25 13.0938H8.45312V15.8438H10.2031ZM10.0312 11.3594C10.4948 11.3594 10.8698 11.2448 11.1562 11.0156C11.4479 10.7812 11.5938 10.4635 11.5938 10.0625C11.5938 9.67708 11.4557 9.3724 11.1797 9.14844C10.9089 8.92448 10.5365 8.8125 10.0625 8.8125H8.45312V11.3594H10.0312ZM16.0625 6.6875H20.6875C21.5312 6.6875 22.2604 6.83854 22.875 7.14062C23.4948 7.44271 23.9688 7.8776 24.2969 8.44531C24.6302 9.00781 24.7969 9.67188 24.7969 10.4375C24.7969 11.2083 24.6276 11.8698 24.2891 12.4219C23.9557 12.974 23.474 13.3932 22.8438 13.6797L25.2031 18H22.2812L20.2031 14.1094H18.7188V18H16.0625V6.6875ZM20.125 11.9844C21.4062 11.9844 22.0469 11.4688 22.0469 10.4375C22.0469 9.91146 21.8828 9.51562 21.5547 9.25C21.2318 8.97917 20.7552 8.84375 20.125 8.84375H18.7188V11.9844H20.125ZM25.7656 18L29.6094 6.6875H33.1406L36.9688 18H34.1094L33.3438 15.5781H29.4062L28.6406 18H25.7656ZM32.7031 13.5469L31.4219 9.48438H31.3281L30.0469 13.5469H32.7031ZM40.8281 18H38.1719V6.6875H40.8281V18ZM52.1406 18H49.875L45.2812 11.3594H45.2031V18H42.5469V6.6875H44.8438L49.3906 13.3281H49.4844V6.6875H52.1406V18Z" fill="white"/>
<path d="M68.25 10.0469C68.2188 9.63021 68.0521 9.30729 67.75 9.07812C67.4479 8.84896 67.026 8.73438 66.4844 8.73438C65.9583 8.73438 65.5521 8.83854 65.2656 9.04688C64.9844 9.25521 64.8438 9.52604 64.8438 9.85938C64.8438 10.1823 64.9896 10.4427 65.2812 10.6406C65.5729 10.8333 65.9896 10.9896 66.5312 11.1094L67.5156 11.3438C68.6302 11.5938 69.4818 11.9974 70.0703 12.5547C70.6641 13.112 70.9635 13.8333 70.9688 14.7188C70.9635 15.4271 70.7812 16.0391 70.4219 16.5547C70.0677 17.0703 69.5547 17.4661 68.8828 17.7422C68.2161 18.0182 67.4167 18.1562 66.4844 18.1562C65.5365 18.1562 64.7135 18.013 64.0156 17.7266C63.3229 17.4349 62.7839 17 62.3984 16.4219C62.013 15.8438 61.8125 15.1302 61.7969 14.2812H64.3594C64.3906 14.8177 64.5911 15.2292 64.9609 15.5156C65.3359 15.7969 65.8333 15.9375 66.4531 15.9375C67.0052 15.9375 67.4427 15.8255 67.7656 15.6016C68.0885 15.3776 68.2552 15.0833 68.2656 14.7188C68.2604 14.3958 68.112 14.138 67.8203 13.9453C67.5286 13.7526 67.0625 13.5833 66.4219 13.4375L65.2344 13.1562C63.1406 12.6719 62.0938 11.6302 62.0938 10.0312C62.0885 9.34375 62.2734 8.73438 62.6484 8.20312C63.0286 7.67188 63.5521 7.26042 64.2188 6.96875C64.8906 6.67708 65.651 6.53125 66.5 6.53125C67.3594 6.53125 68.112 6.67969 68.7578 6.97656C69.4036 7.26823 69.9036 7.67969 70.2578 8.21094C70.6172 8.74219 70.8021 9.35417 70.8125 10.0469H68.25ZM81.9375 18H79.6719L75.0781 11.3594H75V18H72.3438V6.6875H74.6406L79.1875 13.3281H79.2812V6.6875H81.9375V18ZM83.125 18L86.9688 6.6875H90.5L94.3281 18H91.4688L90.7031 15.5781H86.7656L86 18H83.125ZM90.0625 13.5469L88.7812 9.48438H88.6875L87.4062 13.5469H90.0625ZM102.516 10.7656C102.438 10.1823 102.198 9.72135 101.797 9.38281C101.401 9.04427 100.891 8.875 100.266 8.875C99.7083 8.875 99.2292 9.01302 98.8281 9.28906C98.4271 9.5599 98.1172 9.95573 97.8984 10.4766C97.6849 10.9922 97.5781 11.6146 97.5781 12.3438C97.5781 13.0938 97.6849 13.7292 97.8984 14.25C98.1172 14.7656 98.4271 15.1562 98.8281 15.4219C99.2292 15.6823 99.7031 15.8125 100.25 15.8125C100.859 15.8125 101.365 15.6562 101.766 15.3438C102.167 15.0312 102.417 14.599 102.516 14.0469L105.203 14.0625C105.125 14.7604 104.88 15.4219 104.469 16.0469C104.057 16.6719 103.487 17.1797 102.758 17.5703C102.029 17.9609 101.177 18.1562 100.203 18.1562C99.1719 18.1562 98.2526 17.9271 97.4453 17.4688C96.638 17.0104 96.0052 16.3438 95.5469 15.4688C95.0885 14.5938 94.8594 13.5521 94.8594 12.3438C94.8594 11.1302 95.0911 10.0859 95.5547 9.21094C96.0182 8.33594 96.6536 7.67188 97.4609 7.21875C98.2734 6.76042 99.1875 6.53125 100.203 6.53125C101.115 6.53125 101.93 6.69792 102.648 7.03125C103.367 7.36458 103.948 7.84896 104.391 8.48438C104.839 9.11979 105.109 9.88021 105.203 10.7656H102.516ZM106.75 6.6875H109.406V11.5156H109.562L113.359 6.6875H116.516L112.469 11.7344L116.578 18H113.391L110.531 13.5156L109.406 14.9062V18H106.75V6.6875Z" fill="#8646F2"/>
</svg>
