<svg width="16" height="16" viewBox="0 0 16 16" fill="none" xmlns="http://www.w3.org/2000/svg">
<path id="Vector" d="M10.4 10.4V9.2C10.4 8.88174 10.2736 8.57652 10.0485 8.35147C9.82348 8.12643 9.51826 8 9.2 8C9.51826 8 9.82348 7.87357 10.0485 7.64853C10.2736 7.42348 10.4 7.11826 10.4 6.8V5.6C10.4 4.712 9.68 4 8.8 4H5.6V5.6H8.8V7.2H7.2V8.8H8.8V10.4H5.6V12H8.8C9.22435 12 9.63131 11.8314 9.93137 11.5314C10.2314 11.2313 10.4 10.8243 10.4 10.4ZM8 0C9.05058 0 10.0909 0.206926 11.0615 0.608964C12.0321 1.011 12.914 1.60028 13.6569 2.34315C14.3997 3.08601 14.989 3.96793 15.391 4.93853C15.7931 5.90914 16 6.94943 16 8C16 10.1217 15.1571 12.1566 13.6569 13.6569C12.1566 15.1571 10.1217 16 8 16C6.94943 16 5.90914 15.7931 4.93853 15.391C3.96793 14.989 3.08601 14.3997 2.34315 13.6569C0.842855 12.1566 0 10.1217 0 8C0 5.87827 0.842855 3.84344 2.34315 2.34315C3.84344 0.842855 5.87827 0 8 0Z" fill="#C0C5DC"/>
</svg>
