<svg width="43" height="86" viewBox="0 0 43 86" fill="none" xmlns="http://www.w3.org/2000/svg">
<rect y="38" width="12" height="8" fill="#8646F2"/>
<rect x="14.6567" y="9" width="12" height="8" transform="rotate(45 14.6567 9)" fill="#8646F2"/>
<rect x="42" width="12" height="4" transform="rotate(90 42 0)" fill="#8646F2"/>
<path fill-rule="evenodd" clip-rule="evenodd" d="M35.75 86H39C41.2091 86 43 84.2091 43 82V79.3H32.4V82.65C32.4 84.66 33.74 86 35.75 86ZM43 19.0061V72.6H32.4C30.39 72.6 29.05 71.26 29.05 69.25V61.545C23.02 57.525 19 50.49 19 42.45C19 29.385 29.385 19 42.45 19C42.6339 19 42.8172 19.0021 43 19.0061Z" fill="#8646F2"/>
</svg>
