<svg width="41" height="36" viewBox="0 0 41 36" fill="none" xmlns="http://www.w3.org/2000/svg">
<path d="M20.4469 3.41016L25.9594 5.49844L20.25 7.69219L14.5406 5.49844L20.0531 3.41016C20.1797 3.36094 20.3203 3.36094 20.4539 3.41016H20.4469ZM9.5625 6.49688V14.3859C9.47109 14.4141 9.37969 14.4422 9.28828 14.4773L2.53828 17.0367C1.0125 17.6133 0 19.0828 0 20.7141V29.0953C0 30.6562 0.921094 32.0695 2.35547 32.7023L9.10547 35.6695C10.118 36.1125 11.2641 36.1125 12.2766 35.6695L20.25 32.1609L28.2305 35.6695C29.243 36.1125 30.3891 36.1125 31.4016 35.6695L38.1516 32.7023C39.5789 32.0766 40.507 30.6562 40.507 29.0953V20.7141C40.507 19.0758 39.4945 17.6133 37.9688 17.0297L31.2188 14.4703C31.1273 14.4352 31.0359 14.407 30.9445 14.3789V6.49688C30.9445 4.85859 29.932 3.39609 28.4062 2.8125L21.6562 0.253125C20.7562 -0.084375 19.7648 -0.084375 18.8648 0.253125L12.1148 2.8125C10.575 3.39609 9.5625 4.86563 9.5625 6.49688ZM27.5625 14.8008L21.7688 16.9945V10.7227L27.5625 8.50078V14.8008ZM10.8844 17.6344L16.3969 19.7227L10.6875 21.9094L4.97813 19.7227L10.4906 17.6344C10.6172 17.5852 10.7578 17.5852 10.8914 17.6344H10.8844ZM12.2063 32.0062V24.9398L18 22.718V29.4609L12.2063 32.0062ZM29.6156 17.6344C29.7422 17.5852 29.8828 17.5852 30.0164 17.6344L35.5289 19.7227L29.8125 21.9094L24.1031 19.7227L29.6156 17.6344ZM36.7875 29.6086L31.3313 32.0062V24.9398L37.125 22.718V29.0953C37.125 29.3203 36.9914 29.5172 36.7875 29.6086Z" fill="#F6F7FE"/>
</svg>
