<svg width="32" height="32" viewBox="0 0 32 32" fill="none" xmlns="http://www.w3.org/2000/svg">
<path d="M16.1 0.774696C16.0467 0.414728 15.7733 0.121421 15.4134 0.068092C13.9401 -0.138556 12.4403 0.128087 11.1203 0.828024L6.18737 3.46112C4.87413 4.16106 3.81421 5.26096 3.16092 6.60084L0.714429 11.6404C0.0611424 12.9803 -0.152176 14.5001 0.107806 15.9667L1.0744 21.4862C1.33438 22.9594 2.04767 24.3059 3.12092 25.3458L7.14064 29.2388C8.21389 30.2787 9.58046 30.9453 11.0537 31.152L16.5866 31.9319C18.0599 32.1386 19.5597 31.8719 20.8797 31.172L25.8126 28.5389C27.1259 27.8389 28.1858 26.739 28.8391 25.3925L31.2856 20.3596C31.9389 19.0197 32.1522 17.4999 31.8922 16.0333C31.8322 15.68 31.5389 15.4134 31.1856 15.3601C27.7525 14.8134 24.9994 12.2203 24.2194 8.8673C24.0994 8.36068 23.6861 7.97405 23.1728 7.89406C19.5331 7.31411 16.66 4.4277 16.0933 0.774696H16.1ZM12.8002 8.534C13.366 8.534 13.9086 8.75874 14.3086 9.15878C14.7087 9.55883 14.9334 10.1014 14.9334 10.6671C14.9334 11.2329 14.7087 11.7755 14.3086 12.1755C13.9086 12.5755 13.366 12.8003 12.8002 12.8003C12.2345 12.8003 11.6919 12.5755 11.2918 12.1755C10.8918 11.7755 10.667 11.2329 10.667 10.6671C10.667 10.1014 10.8918 9.55883 11.2918 9.15878C11.6919 8.75874 12.2345 8.534 12.8002 8.534ZM8.53387 21.3329C8.53387 20.7671 8.75861 20.2245 9.15866 19.8245C9.55871 19.4245 10.1013 19.1997 10.667 19.1997C11.2328 19.1997 11.7754 19.4245 12.1754 19.8245C12.5755 20.2245 12.8002 20.7671 12.8002 21.3329C12.8002 21.8986 12.5755 22.4412 12.1754 22.8412C11.7754 23.2413 11.2328 23.466 10.667 23.466C10.1013 23.466 9.55871 23.2413 9.15866 22.8412C8.75861 22.4412 8.53387 21.8986 8.53387 21.3329ZM23.4661 17.0666C24.0319 17.0666 24.5745 17.2913 24.9745 17.6914C25.3746 18.0914 25.5993 18.634 25.5993 19.1997C25.5993 19.7655 25.3746 20.308 24.9745 20.7081C24.5745 21.1081 24.0319 21.3329 23.4661 21.3329C22.9004 21.3329 22.3578 21.1081 21.9577 20.7081C21.5577 20.308 21.333 19.7655 21.333 19.1997C21.333 18.634 21.5577 18.0914 21.9577 17.6914C22.3578 17.2913 22.9004 17.0666 23.4661 17.0666Z" fill="#2A2A3A"/>
</svg>
