<svg width="46" height="28" viewBox="0 0 46 28" fill="none" xmlns="http://www.w3.org/2000/svg">
<path d="M0 5C0 2.51797 2.06281 0.5 4.6 0.5H18.4H21.85H23H41.4C43.9372 0.5 46 2.51797 46 5V23C46 25.482 43.9372 27.5 41.4 27.5H23H21.85H18.4H4.6C2.06281 27.5 0 25.482 0 23V5ZM23 5V23H41.4V5H23ZM12.8153 8.36797C12.5853 7.86172 12.0678 7.53125 11.5 7.53125C10.9322 7.53125 10.4147 7.86172 10.1847 8.36797L5.58469 18.493C5.26125 19.2031 5.59188 20.0328 6.31781 20.3492C7.04375 20.6656 7.89188 20.3422 8.21531 19.632L8.855 18.2188H14.145L14.7847 19.632C15.1081 20.3422 15.9563 20.6586 16.6822 20.3492C17.4081 20.0398 17.7316 19.2031 17.4153 18.493L12.8153 8.36797ZM11.5 12.3969L12.8656 15.4062H10.1344L11.5 12.3969ZM32.2 7.53125C32.9906 7.53125 33.6375 8.16406 33.6375 8.9375V9.21875H36.8H37.95C38.7406 9.21875 39.3875 9.85156 39.3875 10.625C39.3875 11.3984 38.7406 12.0312 37.95 12.0312H37.8062L37.6912 12.3477C37.0516 14.0633 36.0812 15.6242 34.845 16.9461C34.9097 16.9883 34.9744 17.0234 35.0391 17.0586L36.3975 17.8531C37.0803 18.2539 37.2959 19.1188 36.8934 19.7797C36.4909 20.4406 35.5997 20.6586 34.9241 20.2648L33.5656 19.4703C33.2422 19.2805 32.9331 19.0836 32.6241 18.8727C31.8622 19.4 31.05 19.857 30.1803 20.2367L29.9216 20.3492C29.1956 20.6656 28.3475 20.3422 28.0241 19.632C27.7006 18.9219 28.0312 18.0922 28.7572 17.7758L29.0159 17.6633C29.4759 17.4594 29.9216 17.2344 30.3456 16.9742L29.4688 16.1164C28.9081 15.568 28.9081 14.675 29.4688 14.1266C30.0294 13.5781 30.9422 13.5781 31.5028 14.1266L32.5522 15.1531L32.5881 15.1883C33.4794 14.2672 34.2053 13.1984 34.73 12.0242H32.2H27.025C26.2344 12.0242 25.5875 11.3914 25.5875 10.618C25.5875 9.84453 26.2344 9.21172 27.025 9.21172H30.7625V8.93047C30.7625 8.15703 31.4094 7.52422 32.2 7.52422V7.53125Z" fill="#8646F2"/>
</svg>
