<svg width="46" height="27" viewBox="0 0 46 27" fill="none" xmlns="http://www.w3.org/2000/svg">
<path d="M0 4.5C0 2.01797 2.06281 0 4.6 0H18.4H21.85H23H41.4C43.9372 0 46 2.01797 46 4.5V22.5C46 24.982 43.9372 27 41.4 27H23H21.85H18.4H4.6C2.06281 27 0 24.982 0 22.5V4.5ZM23 4.5V22.5H41.4V4.5H23ZM12.8153 7.86797C12.5853 7.36172 12.0678 7.03125 11.5 7.03125C10.9322 7.03125 10.4147 7.36172 10.1847 7.86797L5.58469 17.993C5.26125 18.7031 5.59188 19.5328 6.31781 19.8492C7.04375 20.1656 7.89188 19.8422 8.21531 19.132L8.855 17.7188H14.145L14.7847 19.132C15.1081 19.8422 15.9563 20.1586 16.6822 19.8492C17.4081 19.5398 17.7316 18.7031 17.4153 17.993L12.8153 7.86797ZM11.5 11.8969L12.8656 14.9062H10.1344L11.5 11.8969ZM32.2 7.03125C32.9906 7.03125 33.6375 7.66406 33.6375 8.4375V8.71875H36.8H37.95C38.7406 8.71875 39.3875 9.35156 39.3875 10.125C39.3875 10.8984 38.7406 11.5312 37.95 11.5312H37.8062L37.6912 11.8477C37.0516 13.5633 36.0812 15.1242 34.845 16.4461C34.9097 16.4883 34.9744 16.5234 35.0391 16.5586L36.3975 17.3531C37.0803 17.7539 37.2959 18.6187 36.8934 19.2797C36.4909 19.9406 35.5997 20.1586 34.9241 19.7648L33.5656 18.9703C33.2422 18.7805 32.9331 18.5836 32.6241 18.3727C31.8622 18.9 31.05 19.357 30.1803 19.7367L29.9216 19.8492C29.1956 20.1656 28.3475 19.8422 28.0241 19.132C27.7006 18.4219 28.0312 17.5922 28.7572 17.2758L29.0159 17.1633C29.4759 16.9594 29.9216 16.7344 30.3456 16.4742L29.4688 15.6164C28.9081 15.068 28.9081 14.175 29.4688 13.6266C30.0294 13.0781 30.9422 13.0781 31.5028 13.6266L32.5522 14.6531L32.5881 14.6883C33.4794 13.7672 34.2053 12.6984 34.73 11.5242H32.2H27.025C26.2344 11.5242 25.5875 10.8914 25.5875 10.118C25.5875 9.34453 26.2344 8.71172 27.025 8.71172H30.7625V8.43047C30.7625 7.65703 31.4094 7.02422 32.2 7.02422V7.03125Z" fill="white"/>
</svg>
