<svg width="39" height="36" viewBox="0 0 39 36" fill="none" xmlns="http://www.w3.org/2000/svg">
<path d="M19.125 16.875V1.16719C19.125 0.534375 19.6172 0 20.25 0C28.9477 0 36 7.05234 36 15.75C36 16.3828 35.4656 16.875 34.8328 16.875H19.125ZM0 19.125C0 10.5961 6.33516 3.53672 14.5547 2.41172C15.2016 2.32031 15.75 2.84063 15.75 3.49453V20.25L26.7539 31.2539C27.225 31.725 27.1898 32.4984 26.6484 32.8781C23.8922 34.8469 20.5172 36 16.875 36C7.55859 36 0 28.4484 0 19.125ZM37.0125 20.25C37.6664 20.25 38.1797 20.7984 38.0953 21.4453C37.5539 25.3758 35.6625 28.8703 32.8992 31.4508C32.4773 31.8445 31.8164 31.8164 31.4086 31.4016L20.25 20.25H37.0125Z" fill="white"/>
</svg>
