<svg width="50" height="67" viewBox="0 0 50 67" fill="none" xmlns="http://www.w3.org/2000/svg">
<path fill-rule="evenodd" clip-rule="evenodd" d="M0 53.6H10.1818C12.1727 53.6 13.5 52.26 13.5 50.25V42.545C19.4727 38.525 23.4545 31.49 23.4545 23.45C23.4545 10.385 13.1682 0 0.227272 0C0.151423 0 0.0756652 0.000356762 0 0.00106873V6.70147C0.0756227 6.70049 0.151381 6.7 0.227272 6.7C9.51818 6.7 16.8182 14.07 16.8182 23.45C16.8182 30.485 12.8364 36.18 6.86364 38.86V46.9H0V53.6ZM4.00001 67H6.86364C8.85454 67 10.1818 65.66 10.1818 63.65V60.3H0V63C0 65.2091 1.79087 67 4.00001 67ZM41.7045 46.9V41.875H36.7273V46.9H41.7045ZM30.0909 25.125H35.0682V23.45C35.0682 20.77 37.3909 18.425 40.0455 18.425C42.7 18.425 45.0227 20.77 45.0227 23.45C45.0227 25.125 44.3591 26.465 43.0318 27.47L42.0364 28.14C38.7182 30.15 36.7273 33.835 36.7273 37.855V38.525H41.7045V37.855C41.7045 35.51 42.7 33.5 44.6909 32.16L45.6864 31.49C48.3409 29.815 50 26.8 50 23.45C50 17.755 45.6864 13.4 40.0455 13.4C34.4045 13.4 30.0909 17.755 30.0909 23.45V25.125Z" fill="#8646F2"/>
</svg>
