<svg width="32" height="36" viewBox="0 0 32 36" fill="none" xmlns="http://www.w3.org/2000/svg">
<path d="M15.75 1.125C15.2789 1.125 14.9906 0.928125 14.6602 0.696094C14.1961 0.379687 13.6406 0 12.375 0C10.2305 0 8.71875 3.07266 7.73438 6.28594C4.40859 6.89766 2.25 7.88906 2.25 9C2.25 10.0055 4.00781 10.9055 6.79219 11.5242C6.76406 11.8055 6.75 12.0867 6.75 12.375C6.75 13.5703 6.98203 14.7094 7.40391 15.75H3.19219C2.67188 15.75 2.25 16.1719 2.25 16.6922C2.25 16.8117 2.27109 16.9312 2.32031 17.0437L5.04844 23.857C1.98281 26.1422 0 29.7984 0 33.9117C0 35.0648 0.935156 36 2.08828 36H29.4117C30.5648 36 31.5 35.0648 31.5 33.9117C31.5 29.7984 29.5172 26.1492 26.4586 23.857L29.1797 17.0437C29.2219 16.9312 29.25 16.8117 29.25 16.6922C29.25 16.1719 28.8281 15.75 28.3078 15.75H24.0961C24.518 14.7094 24.75 13.5703 24.75 12.375C24.75 12.0867 24.7359 11.8055 24.7078 11.5242C27.4922 10.9055 29.25 10.0055 29.25 9C29.25 7.88906 27.0914 6.89766 23.7656 6.28594C22.7812 3.07266 21.2695 0 19.125 0C17.8594 0 17.3039 0.379687 16.8398 0.696094C16.5023 0.928125 16.2211 1.125 15.75 1.125ZM19.6875 15.75H18.8156C17.6555 15.75 16.6289 15.0047 16.2633 13.9078C16.1016 13.4156 15.4055 13.4156 15.2438 13.9078C14.8781 15.0047 13.8445 15.75 12.6914 15.75H11.8125C10.2586 15.75 9 14.4914 9 12.9375V11.925C10.9828 12.2133 13.2891 12.375 15.75 12.375C18.2109 12.375 20.5172 12.2133 22.5 11.925V12.9375C22.5 14.4914 21.2414 15.75 19.6875 15.75ZM13.5 22.5L14.625 24.75L12.375 33.75L9 20.25L13.5 22.5ZM22.5 20.25L19.125 33.75L16.875 24.75L18 22.5L22.5 20.25Z" fill="white"/>
</svg>
