<svg width="39" height="36" viewBox="0 0 39 36" fill="none" xmlns="http://www.w3.org/2000/svg">
<path d="M19.375 16.875V1.16719C19.375 0.534375 19.8672 0 20.5 0C29.1977 0 36.25 7.05234 36.25 15.75C36.25 16.3828 35.7156 16.875 35.0828 16.875H19.375ZM0.25 19.125C0.25 10.5961 6.58516 3.53672 14.8047 2.41172C15.4516 2.32031 16 2.84063 16 3.49453V20.25L27.0039 31.2539C27.475 31.725 27.4398 32.4984 26.8984 32.8781C24.1422 34.8469 20.7672 36 17.125 36C7.80859 36 0.25 28.4484 0.25 19.125ZM37.2625 20.25C37.9164 20.25 38.4297 20.7984 38.3453 21.4453C37.8039 25.3758 35.9125 28.8703 33.1492 31.4508C32.7273 31.8445 32.0664 31.8164 31.6586 31.4016L20.5 20.25H37.2625Z" fill="#8646F2"/>
</svg>
