<svg width="16" height="16" viewBox="0 0 16 16" fill="none" xmlns="http://www.w3.org/2000/svg">
<path id="Vector" d="M5.6 4V5.6H8.8V7.2H7.2C6.77565 7.2 6.36869 7.36857 6.06863 7.66863C5.76857 7.96869 5.6 8.37565 5.6 8.8V12H7.2H10.4V10.4H7.2V8.8H8.8C9.22435 8.8 9.63131 8.63143 9.93137 8.33137C10.2314 8.03131 10.4 7.62435 10.4 7.2V5.6C10.4 5.17565 10.2314 4.76869 9.93137 4.46863C9.63131 4.16857 9.22435 4 8.8 4H5.6ZM8 0C9.05058 0 10.0909 0.206926 11.0615 0.608964C12.0321 1.011 12.914 1.60028 13.6569 2.34315C14.3997 3.08601 14.989 3.96793 15.391 4.93853C15.7931 5.90914 16 6.94943 16 8C16 10.1217 15.1571 12.1566 13.6569 13.6569C12.1566 15.1571 10.1217 16 8 16C6.94943 16 5.90914 15.7931 4.93853 15.391C3.96793 14.989 3.08601 14.3997 2.34315 13.6569C0.842855 12.1566 0 10.1217 0 8C0 5.87827 0.842855 3.84344 2.34315 2.34315C3.84344 0.842855 5.87827 0 8 0Z" fill="#C0C5DC"/>
</svg>
